<?xml version="1.0" encoding="UTF-8"?> <svg xmlns="http://www.w3.org/2000/svg" width="63" height="84" viewBox="0 0 63 84" fill="none"><rect width="63" height="84" fill="#FFDA03"></rect><path fill-rule="evenodd" clip-rule="evenodd" d="M59.5 79.981H46.0244V76.4409H59.5V79.981Z" fill="#06376B"></path><path fill-rule="evenodd" clip-rule="evenodd" d="M13.709 48.3904L21.7718 43.3328L23.653 46.3317L7.04008 56.7526V76.4406H20.1693V79.9807H3.5V54.7943L10.1689 50.611V46.656H13.709V48.3904Z" fill="#06376B"></path><path d="M43.4804 77.6478C43.4681 77.5327 43.4162 77.443 43.3248 77.3789C43.2343 77.3147 43.1165 77.2826 42.9715 77.2826C42.8695 77.2826 42.7821 77.298 42.7091 77.3288C42.6362 77.3595 42.5804 77.4013 42.5417 77.454C42.503 77.5067 42.4832 77.5669 42.4824 77.6346C42.4824 77.6909 42.4951 77.7396 42.5206 77.781C42.547 77.8223 42.5826 77.8574 42.6274 77.8864C42.6722 77.9146 42.7219 77.9383 42.7764 77.9576C42.8308 77.977 42.8858 77.9932 42.9412 78.0064L43.1943 78.0697C43.2962 78.0934 43.3942 78.1255 43.4883 78.1659C43.5832 78.2063 43.668 78.2573 43.7427 78.3188C43.8183 78.3804 43.8781 78.4546 43.922 78.5417C43.966 78.6287 43.9879 78.7306 43.9879 78.8475C43.9879 79.0057 43.9475 79.145 43.8666 79.2654C43.7858 79.385 43.6689 79.4786 43.516 79.5462C43.3639 79.613 43.1798 79.6464 42.9636 79.6464C42.7535 79.6464 42.5711 79.6139 42.4164 79.5489C42.2626 79.4838 42.1422 79.3889 42.0552 79.2641C41.9691 79.1393 41.9225 78.9873 41.9155 78.808H42.3967C42.4037 78.902 42.4327 78.9802 42.4837 79.0426C42.5347 79.105 42.601 79.1516 42.6828 79.1824C42.7654 79.2131 42.8577 79.2285 42.9596 79.2285C43.066 79.2285 43.1591 79.2127 43.2391 79.1811C43.32 79.1485 43.3832 79.1037 43.4289 79.0466C43.4746 78.9886 43.4979 78.9209 43.4988 78.8436C43.4979 78.7732 43.4773 78.7152 43.4369 78.6695C43.3964 78.623 43.3397 78.5843 43.2668 78.5535C43.1947 78.5219 43.1103 78.4938 43.0137 78.4691L42.7065 78.39C42.4841 78.3329 42.3083 78.2463 42.1791 78.1303C42.0508 78.0134 41.9867 77.8583 41.9867 77.6649C41.9867 77.5059 42.0297 77.3666 42.1159 77.247C42.2029 77.1275 42.3211 77.0348 42.4705 76.9688C42.6199 76.9021 42.7891 76.8687 42.9781 76.8687C43.1697 76.8687 43.3375 76.9021 43.4817 76.9688C43.6267 77.0348 43.7405 77.1266 43.8231 77.2444C43.9058 77.3613 43.9484 77.4958 43.951 77.6478H43.4804Z" fill="#06376B"></path><path d="M38.6268 77.3155V76.9055H40.781V77.3155H39.9465V79.6055H39.4614V77.3155H38.6268Z" fill="#06376B"></path><path d="M35.5141 79.6055V76.9055H36.5266C36.734 76.9055 36.908 76.9416 37.0487 77.0136C37.1902 77.0857 37.297 77.1868 37.369 77.3168C37.442 77.446 37.4785 77.5968 37.4785 77.769C37.4785 77.9422 37.4415 78.0925 37.3677 78.2199C37.2948 78.3465 37.1871 78.4445 37.0447 78.5139C36.9023 78.5825 36.7274 78.6167 36.52 78.6167H35.7989V78.2107H36.4541C36.5754 78.2107 36.6747 78.194 36.752 78.1606C36.8294 78.1263 36.8865 78.0767 36.9234 78.0116C36.9612 77.9457 36.9801 77.8648 36.9801 77.769C36.9801 77.6732 36.9612 77.5915 36.9234 77.5238C36.8856 77.4553 36.8281 77.4034 36.7507 77.3683C36.6734 77.3322 36.5736 77.3142 36.4515 77.3142H36.0032V79.6055H35.5141ZM36.9089 78.3821L37.5773 79.6055H37.0315L36.375 78.3821H36.9089Z" fill="#06376B"></path><path d="M32.4423 79.6055V76.9055H34.1984V77.3155H32.9314V78.0485H34.1074V78.4585H32.9314V79.1955H34.2089V79.6055H32.4423Z" fill="#06376B"></path><path d="M29.2364 79.6055V76.9055H30.2489C30.4563 76.9055 30.6303 76.9442 30.771 77.0215C30.9125 77.0989 31.0193 77.2052 31.0913 77.3406C31.1643 77.475 31.2007 77.628 31.2007 77.7994C31.2007 77.9725 31.1643 78.1263 31.0913 78.2608C31.0184 78.3953 30.9107 78.5012 30.7683 78.5785C30.6259 78.655 30.4506 78.6932 30.2423 78.6932H29.5713V78.2911H30.1764C30.2977 78.2911 30.397 78.27 30.4743 78.2278C30.5517 78.1856 30.6088 78.1276 30.6457 78.0538C30.6835 77.98 30.7024 77.8952 30.7024 77.7994C30.7024 77.7036 30.6835 77.6192 30.6457 77.5462C30.6088 77.4733 30.5512 77.4166 30.473 77.3762C30.3957 77.3349 30.2959 77.3142 30.1737 77.3142H29.7255V79.6055H29.2364Z" fill="#06376B"></path><path d="M26.2651 76.9055L26.8597 77.8943H26.8808L27.478 76.9055H28.0357L27.2038 78.2555L28.0489 79.6055H27.482L26.8808 78.6233H26.8597L26.2585 79.6055H25.6943L26.5473 78.2555L25.7048 76.9055H26.2651Z" fill="#06376B"></path><path d="M22.7846 79.6055V76.9055H24.5407V77.3155H23.2737V78.0485H24.4497V78.4585H23.2737V79.1955H24.5512V79.6055H22.7846Z" fill="#06376B"></path><path d="M49.9764 59.0447V64.2747H48.7915L46.9017 61.5269H46.8711V64.2747H45.4512V59.0447H46.6565L48.5157 61.7823H48.5565V59.0447H49.9764Z" fill="#06376B"></path><path fill-rule="evenodd" clip-rule="evenodd" d="M50.0354 58.9856V64.3337H48.7604L46.93 61.6722V64.3337H45.3922V58.9856H46.6878L48.4975 61.6505V58.9856H50.0354ZM48.5156 61.7822L46.6565 59.0446H45.4512V64.2747H46.871V61.5268H46.9017L48.7914 64.2747H49.9764V59.0446H48.5565V61.7822H48.5156Z" fill="#06376B"></path><path d="M40.2585 64.2747V59.0447H44.0279V60.1888H41.6784V61.0877H43.8338V62.2318H41.6784V63.1307H44.0177V64.2747H40.2585Z" fill="#06376B"></path><path fill-rule="evenodd" clip-rule="evenodd" d="M40.1995 64.3337V58.9856H44.0869V60.2477H41.7374V61.0286H43.8928V62.2907H41.7374V63.0716H44.0766V64.3337H40.1995ZM41.6784 63.1306V62.2317H43.8338V61.0876H41.6784V60.1887H44.0279V59.0446H40.2585V64.2747H44.0176V63.1306H41.6784Z" fill="#06376B"></path><path d="M30.8501 64.2747L29.3076 59.0447H30.8909L31.606 62.2624H31.6468L32.4947 59.0447H33.7409L34.5888 62.2726H34.6296L35.3447 59.0447H36.928L35.3855 64.2747H34.0269L33.1382 61.3533H33.0974L32.2087 64.2747H30.8501Z" fill="#06376B"></path><path fill-rule="evenodd" clip-rule="evenodd" d="M30.8059 64.3337L29.2286 58.9856H30.9382L31.6295 62.0964L32.4492 58.9856H33.7864L34.606 62.1061L35.2972 58.9856H37.0068L35.4296 64.3337H33.9831L33.1177 61.4888L32.2523 64.3337H30.8059ZM33.0973 61.3532H33.1382L34.0269 64.2747H35.3855L36.9279 59.0446H35.3446L34.6296 62.2725H34.5887L33.7409 59.0446H32.4946L31.6468 62.2623H31.6059L30.8909 59.0446H29.3076L30.85 64.2747H32.2086L33.0973 61.3532Z" fill="#06376B"></path><path d="M26.7082 59.0447H28.1281V62.3952C28.1281 62.7936 28.0328 63.1383 27.8421 63.4295C27.6531 63.7189 27.3892 63.9428 27.0504 64.1011C26.7116 64.2577 26.3184 64.336 25.8706 64.336C25.4194 64.336 25.0245 64.2577 24.6857 64.1011C24.3469 63.9428 24.083 63.7189 23.894 63.4295C23.7067 63.1383 23.6131 62.7936 23.6131 62.3952V59.0447H25.033V62.2726C25.033 62.4343 25.0687 62.5791 25.1402 62.7067C25.2117 62.8327 25.3105 62.9315 25.4365 63.003C25.5642 63.0745 25.7089 63.1102 25.8706 63.1102C26.034 63.1102 26.1788 63.0745 26.3047 63.003C26.4307 62.9315 26.5295 62.8327 26.601 62.7067C26.6725 62.5791 26.7082 62.4343 26.7082 62.2726V59.0447Z" fill="#06376B"></path><path fill-rule="evenodd" clip-rule="evenodd" d="M26.6492 58.9856H28.1871V62.3951C28.1871 62.8033 28.0893 63.1596 27.8914 63.4617C27.696 63.761 27.4233 63.9919 27.0754 64.1545C26.7274 64.3153 26.3252 64.395 25.8706 64.395C25.4126 64.395 25.0089 64.3155 24.6609 64.1546C24.313 63.992 24.0401 63.761 23.8446 63.4616C23.6503 63.1596 23.5541 62.8031 23.5541 62.3951V58.9856H25.092V62.2725C25.092 62.4252 25.1256 62.5597 25.1916 62.6777C25.2578 62.7943 25.3488 62.8853 25.4654 62.9515C25.5834 63.0175 25.7179 63.0512 25.8706 63.0512C26.0252 63.0512 26.1596 63.0174 26.2756 62.9516C26.3923 62.8854 26.4833 62.7944 26.5496 62.6777C26.6156 62.5598 26.6492 62.4252 26.6492 62.2725V58.9856ZM26.601 62.7067C26.5295 62.8327 26.4307 62.9314 26.3047 63.0029C26.1787 63.0744 26.034 63.1102 25.8706 63.1102C25.7089 63.1102 25.5641 63.0744 25.4365 63.0029C25.3105 62.9314 25.2117 62.8327 25.1402 62.7067C25.0687 62.579 25.033 62.4343 25.033 62.2725V59.0446H23.6131V62.3951C23.6131 62.7935 23.7067 63.1382 23.894 63.4294C24.083 63.7188 24.3469 63.9427 24.6857 64.101C25.0244 64.2576 25.4194 64.336 25.8706 64.336C26.3183 64.336 26.7116 64.2576 27.0504 64.101C27.3892 63.9427 27.6531 63.7188 27.8421 63.4294C28.0328 63.1382 28.1281 62.7935 28.1281 62.3951V59.0446H26.7082V62.2725C26.7082 62.4343 26.6725 62.579 26.601 62.7067Z" fill="#06376B"></path><path d="M22.237 61.6597C22.237 62.2419 22.1238 62.7331 21.8974 63.1332C21.6709 63.5316 21.3653 63.8338 20.9806 64.0398C20.5958 64.2441 20.1668 64.3462 19.6935 64.3462C19.2168 64.3462 18.7861 64.2432 18.4013 64.0372C18.0182 63.8295 17.7135 63.5265 17.4871 63.1281C17.2623 62.728 17.15 62.2385 17.15 61.6597C17.15 61.0774 17.2623 60.5871 17.4871 60.1887C17.7135 59.7886 18.0182 59.4864 18.4013 59.2821C18.7861 59.0761 19.2168 58.9731 19.6935 58.9731C20.1668 58.9731 20.5958 59.0761 20.9806 59.2821C21.3653 59.4864 21.6709 59.7886 21.8974 60.1887C22.1238 60.5871 22.237 61.0774 22.237 61.6597ZM20.7763 61.6597C20.7763 61.3464 20.7346 61.0825 20.6511 60.868C20.5694 60.6518 20.4477 60.4884 20.286 60.3777C20.1259 60.2653 19.9284 60.2092 19.6935 60.2092C19.4585 60.2092 19.2602 60.2653 19.0985 60.3777C18.9384 60.4884 18.8167 60.6518 18.7333 60.868C18.6516 61.0825 18.6107 61.3464 18.6107 61.6597C18.6107 61.9729 18.6516 62.2377 18.7333 62.4539C18.8167 62.6684 18.9384 62.8319 19.0985 62.9442C19.2602 63.0549 19.4585 63.1102 19.6935 63.1102C19.9284 63.1102 20.1259 63.0549 20.286 62.9442C20.4477 62.8319 20.5694 62.6684 20.6511 62.4539C20.7346 62.2377 20.7763 61.9729 20.7763 61.6597Z" fill="#06376B"></path><path fill-rule="evenodd" clip-rule="evenodd" d="M21.9487 63.1622L21.9486 63.1623C21.717 63.5698 21.4035 63.8802 21.0084 64.0917L21.0082 64.0918C20.6142 64.301 20.1756 64.4051 19.6935 64.4051C19.208 64.4051 18.7675 64.3002 18.3734 64.0892L18.3732 64.089C17.9799 63.8758 17.6673 63.5646 17.4357 63.1572L17.4356 63.1569C17.2048 62.746 17.0909 62.246 17.0909 61.6596C17.0909 61.0699 17.2047 60.569 17.4356 60.1597L17.4357 60.1596C17.6673 59.7504 17.98 59.4399 18.3735 59.23C18.7676 59.019 19.208 58.9141 19.6935 58.9141C20.1756 58.9141 20.6143 59.0191 21.0083 59.23C21.4035 59.4399 21.717 59.7503 21.9486 60.1595C22.1813 60.5689 22.296 61.0698 22.296 61.6596C22.296 62.2494 22.1813 62.7512 21.9487 63.1622ZM20.9806 59.2821C20.5958 59.0761 20.1668 58.9731 19.6935 58.9731C19.2168 58.9731 18.786 59.0761 18.4013 59.2821C18.0182 59.4864 17.7135 59.7886 17.487 60.1886C17.2623 60.587 17.1499 61.0773 17.1499 61.6596C17.1499 62.2385 17.2623 62.7279 17.487 63.128C17.7135 63.5264 18.0182 63.8294 18.4013 64.0371C18.786 64.2431 19.2168 64.3461 19.6935 64.3461C20.1668 64.3461 20.5958 64.244 20.9806 64.0397C21.3653 63.8337 21.6709 63.5315 21.8974 63.1331C22.1238 62.733 22.237 62.2419 22.237 61.6596C22.237 61.0773 22.1238 60.587 21.8974 60.1886C21.6709 59.7886 21.3653 59.4864 20.9806 59.2821ZM20.5959 60.8888L20.5959 60.8888C20.5177 60.6818 20.4027 60.529 20.2526 60.4263L20.252 60.4259L20.252 60.4259C20.1038 60.3218 19.9188 60.2681 19.6935 60.2681C19.4682 60.2681 19.2822 60.3218 19.1321 60.4261L19.132 60.4262C18.9835 60.5289 18.8683 60.6818 18.7884 60.8891C18.71 61.0949 18.6697 61.3511 18.6697 61.6596C18.6697 61.968 18.7099 62.2251 18.7884 62.4327C18.8683 62.6381 18.9834 62.7911 19.1321 62.8957C19.2821 62.9982 19.4682 63.0511 19.6935 63.0511C19.9189 63.0511 20.104 62.9982 20.2523 62.8957C20.4027 62.7912 20.5178 62.6381 20.596 62.4328L20.5961 62.4326C20.6761 62.2251 20.7173 61.968 20.7173 61.6596C20.7173 61.3512 20.6761 61.095 20.5961 60.8893L20.5959 60.8888ZM20.2859 62.9441C20.1259 63.0548 19.9284 63.1101 19.6935 63.1101C19.4585 63.1101 19.2602 63.0548 19.0985 62.9441C18.9384 62.8318 18.8167 62.6683 18.7333 62.4538C18.6515 62.2376 18.6107 61.9729 18.6107 61.6596C18.6107 61.3463 18.6515 61.0825 18.7333 60.8679C18.8167 60.6517 18.9384 60.4883 19.0985 60.3776C19.2602 60.2653 19.4585 60.2091 19.6935 60.2091C19.9284 60.2091 20.1259 60.2653 20.2859 60.3776C20.4477 60.4883 20.5694 60.6517 20.6511 60.8679C20.7345 61.0825 20.7763 61.3463 20.7763 61.6596C20.7763 61.9729 20.7345 62.2376 20.6511 62.4538C20.5694 62.6683 20.4477 62.8318 20.2859 62.9441Z" fill="#06376B"></path><path d="M11.6477 64.2747V59.0447H13.9154C14.3138 59.0447 14.6484 59.0983 14.9191 59.2056C15.1915 59.3128 15.3966 59.4643 15.5345 59.6601C15.6741 59.8559 15.7439 60.0866 15.7439 60.3522C15.7439 60.5446 15.7013 60.7199 15.6162 60.8783C15.5328 61.0366 15.4153 61.1694 15.2638 61.2766C15.1123 61.3822 14.9352 61.4554 14.7326 61.4963V61.5473C14.9574 61.5559 15.1617 61.6129 15.3455 61.7184C15.5294 61.8223 15.6758 61.9662 15.7848 62.15C15.8937 62.3322 15.9482 62.5467 15.9482 62.7936C15.9482 63.0796 15.8733 63.3341 15.7235 63.5571C15.5754 63.7802 15.3643 63.9555 15.0902 64.0832C14.816 64.2109 14.4892 64.2747 14.1095 64.2747H11.6477ZM13.0676 63.1409H13.7316C13.9699 63.1409 14.1487 63.0966 14.2678 63.0081C14.387 62.9179 14.4466 62.7851 14.4466 62.6097C14.4466 62.4871 14.4185 62.3833 14.3623 62.2981C14.3062 62.213 14.2261 62.1483 14.1223 62.1041C14.0201 62.0598 13.8967 62.0377 13.752 62.0377H13.0676V63.1409ZM13.0676 61.1592H13.6498C13.7741 61.1592 13.8839 61.1396 13.9793 61.1004C14.0746 61.0613 14.1487 61.0051 14.2014 60.9319C14.2559 60.857 14.2832 60.7659 14.2832 60.6586C14.2832 60.4969 14.2253 60.3735 14.1095 60.2884C13.9937 60.2015 13.8473 60.1581 13.6703 60.1581H13.0676V61.1592Z" fill="#06376B"></path><path d="M54.2283 72.1185V66.8884H57.9976V68.0325H55.6482V68.9314H57.8035V70.0755H55.6482V70.9744H57.9874V72.1185H54.2283Z" fill="#06376B"></path><path fill-rule="evenodd" clip-rule="evenodd" d="M54.1693 72.1774V66.8293H58.0566V68.0914H55.7071V68.8723H57.8625V70.1344H55.7071V70.9153H58.0464V72.1774H54.1693ZM55.6481 70.9743V70.0754H57.8035V68.9313H55.6481V68.0324H57.9976V66.8883H54.2283V72.1184H57.9874V70.9743H55.6481Z" fill="#06376B"></path><path d="M52.8363 66.8884V72.1185H51.4164V66.8884H52.8363Z" fill="#06376B"></path><path fill-rule="evenodd" clip-rule="evenodd" d="M52.8952 66.8293V72.1774H51.3574V66.8293H52.8952ZM52.8362 66.8883H51.4164V72.1184H52.8362V66.8883Z" fill="#06376B"></path><path d="M45.6172 68.0325V66.8884H50.1629V68.0325H48.5897V72.1185H47.1903V68.0325H45.6172Z" fill="#06376B"></path><path fill-rule="evenodd" clip-rule="evenodd" d="M45.5582 68.0914V66.8293H50.2218V68.0914H48.6487V72.1774H47.1313V68.0914H45.5582ZM47.1903 68.0324V72.1184H48.5897V68.0324H50.1628V66.8883H45.6172V68.0324H47.1903Z" fill="#06376B"></path><path d="M41.3362 72.1185H39.804L41.5303 66.8884H43.4711L45.1975 72.1185H43.6652L42.5211 68.3287H42.4803L41.3362 72.1185ZM41.0502 70.0551H43.9308V71.1174H41.0502V70.0551Z" fill="#06376B"></path><path fill-rule="evenodd" clip-rule="evenodd" d="M41.38 72.1774H39.7224L41.4876 66.8293H43.5138L45.2791 72.1774H43.6214L43.3192 71.1763H41.6822L41.38 72.1774ZM41.3362 72.1184H39.804L41.5303 66.8883H43.4711L45.1975 72.1184H43.6652L43.363 71.1173H41.6384L41.3362 72.1184ZM41.9591 70.055H43.0423L42.5211 68.3287H42.4803L41.9591 70.055ZM42.0386 69.996H42.9629L42.5007 68.4651L42.0386 69.996Z" fill="#06376B"></path><path d="M35.8218 66.8884L36.8943 70.576H36.9352L38.0078 66.8884H39.6115L37.8852 72.1185H35.9443L34.218 66.8884H35.8218Z" fill="#06376B"></path><path fill-rule="evenodd" clip-rule="evenodd" d="M35.8661 66.8293L36.9148 70.4349L37.9635 66.8293H39.6931L37.9279 72.1774H35.9017L34.1364 66.8293H35.8661ZM36.9352 70.576H36.8943L35.8218 66.8883H34.218L35.9444 72.1184H37.8852L39.6115 66.8883H38.0078L36.9352 70.576Z" fill="#06376B"></path><path d="M33.3457 69.5034C33.3457 70.0857 33.2324 70.5769 33.006 70.9769C32.7796 71.3753 32.474 71.6775 32.0892 71.8835C31.7045 72.0878 31.2754 72.19 30.8021 72.19C30.3254 72.19 29.8947 72.087 29.5099 71.881C29.1269 71.6733 28.8221 71.3702 28.5957 70.9718C28.371 70.5717 28.2586 70.0823 28.2586 69.5034C28.2586 68.9212 28.371 68.4309 28.5957 68.0325C28.8221 67.6324 29.1269 67.3302 29.5099 67.1259C29.8947 66.9199 30.3254 66.8169 30.8021 66.8169C31.2754 66.8169 31.7045 66.9199 32.0892 67.1259C32.474 67.3302 32.7796 67.6324 33.006 68.0325C33.2324 68.4309 33.3457 68.9212 33.3457 69.5034ZM31.8849 69.5034C31.8849 69.1902 31.8432 68.9263 31.7598 68.7118C31.6781 68.4956 31.5563 68.3321 31.3946 68.2215C31.2346 68.1091 31.0371 68.0529 30.8021 68.0529C30.5672 68.0529 30.3688 68.1091 30.2071 68.2215C30.0471 68.3321 29.9253 68.4956 29.8419 68.7118C29.7602 68.9263 29.7193 69.1902 29.7193 69.5034C29.7193 69.8167 29.7602 70.0814 29.8419 70.2976C29.9253 70.5122 30.0471 70.6756 30.2071 70.788C30.3688 70.8986 30.5672 70.954 30.8021 70.954C31.0371 70.954 31.2346 70.8986 31.3946 70.788C31.5563 70.6756 31.6781 70.5122 31.7598 70.2976C31.8432 70.0814 31.8849 69.8167 31.8849 69.5034Z" fill="#06376B"></path><path fill-rule="evenodd" clip-rule="evenodd" d="M33.0574 71.0059L33.0574 71.006C32.8257 71.4136 32.5122 71.7239 32.1171 71.9355L32.1169 71.9356C31.7229 72.1448 31.2843 72.2489 30.8022 72.2489C30.3167 72.2489 29.8762 72.1439 29.4821 71.9329L29.4819 71.9328C29.0886 71.7195 28.776 71.4084 28.5444 71.0009L28.5443 71.0007C28.3135 70.5897 28.1996 70.0897 28.1996 69.5034C28.1996 68.9137 28.3134 68.4127 28.5444 68.0034L28.5444 68.0033C28.776 67.5941 29.0887 67.2837 29.4822 67.0738C29.8763 66.8628 30.3167 66.7578 30.8022 66.7578C31.2843 66.7578 31.723 66.8628 32.117 67.0738C32.5122 67.2836 32.8257 67.594 33.0574 68.0032C33.29 68.4126 33.4047 68.9136 33.4047 69.5034C33.4047 70.0931 33.29 70.5949 33.0574 71.0059ZM32.0893 67.1258C31.7045 66.9198 31.2755 66.8168 30.8022 66.8168C30.3255 66.8168 29.8947 66.9198 29.51 67.1258C29.1269 67.3301 28.8222 67.6323 28.5957 68.0324C28.371 68.4308 28.2586 68.9211 28.2586 69.5034C28.2586 70.0822 28.371 70.5717 28.5957 70.9718C28.8222 71.3701 29.1269 71.6732 29.51 71.8809C29.8947 72.0869 30.3255 72.1899 30.8022 72.1899C31.2755 72.1899 31.7045 72.0877 32.0893 71.8834C32.474 71.6774 32.7796 71.3752 33.0061 70.9769C33.2325 70.5768 33.3457 70.0856 33.3457 69.5034C33.3457 68.9211 33.2325 68.4308 33.0061 68.0324C32.7796 67.6323 32.474 67.3301 32.0893 67.1258ZM31.7046 68.7326L31.7046 68.7326C31.6264 68.5256 31.5114 68.3728 31.3613 68.2701L31.3607 68.2697L31.3607 68.2697C31.2125 68.1656 31.0275 68.1118 30.8022 68.1118C30.5769 68.1118 30.3909 68.1656 30.2408 68.2698L30.2407 68.2699C30.0922 68.3726 29.977 68.5255 29.8971 68.7328C29.8187 68.9386 29.7784 69.1949 29.7784 69.5034C29.7784 69.8117 29.8186 70.0689 29.8971 70.2765C29.977 70.4818 30.0921 70.6349 30.2408 70.7394C30.3908 70.842 30.5769 70.8949 30.8022 70.8949C31.0276 70.8949 31.2127 70.8419 31.361 70.7394C31.5114 70.6349 31.6265 70.4819 31.7047 70.2766L31.7048 70.2763C31.7849 70.0688 31.826 69.8117 31.826 69.5034C31.826 69.1949 31.7848 68.9388 31.7048 68.7331L31.7046 68.7326ZM31.3946 70.7879C31.2346 70.8985 31.0371 70.9539 30.8022 70.9539C30.5672 70.9539 30.3689 70.8985 30.2072 70.7879C30.0471 70.6755 29.9254 70.5121 29.842 70.2976C29.7602 70.0814 29.7194 69.8166 29.7194 69.5034C29.7194 69.1901 29.7602 68.9262 29.842 68.7117C29.9254 68.4955 30.0471 68.332 30.2072 68.2214C30.3689 68.109 30.5672 68.0528 30.8022 68.0528C31.0371 68.0528 31.2346 68.109 31.3946 68.2214C31.5564 68.332 31.6781 68.4955 31.7598 68.7117C31.8433 68.9262 31.885 69.1901 31.885 69.5034C31.885 69.8166 31.8433 70.0814 31.7598 70.2976C31.6781 70.5121 31.5564 70.6755 31.3946 70.7879Z" fill="#06376B"></path><path d="M26.8883 66.8884V72.1185H25.7033L23.8136 69.3707H23.7829V72.1185H22.363V66.8884H23.5684L25.4275 69.626H25.4684V66.8884H26.8883Z" fill="#06376B"></path><path fill-rule="evenodd" clip-rule="evenodd" d="M26.9473 66.8293V72.1774H25.6723L23.8419 69.5159V72.1774H22.304V66.8293H23.5996L25.4094 69.4942V66.8293H26.9473ZM25.4275 69.626L23.5684 66.8883H22.363V72.1184H23.7829V69.3706H23.8135L25.7033 72.1184H26.8883V66.8883H25.4684V69.626H25.4275Z" fill="#06376B"></path><path d="M17.1703 72.1185V66.8884H20.9397V68.0325H18.5902V68.9314H20.7456V70.0755H18.5902V70.9744H20.9295V72.1185H17.1703Z" fill="#06376B"></path><path fill-rule="evenodd" clip-rule="evenodd" d="M17.1114 72.1774V66.8293H20.9987V68.0914H18.6493V68.8723H20.8046V70.1344H18.6493V70.9153H20.9885V72.1774H17.1114ZM18.5903 70.9743V70.0754H20.7456V68.9313H18.5903V68.0324H20.9397V66.8883H17.1704V72.1184H20.9295V70.9743H18.5903Z" fill="#06376B"></path><path d="M11.6477 72.1185V66.8884H13.9052C14.2934 66.8884 14.633 66.9591 14.9242 67.1004C15.2153 67.2417 15.4417 67.4451 15.6035 67.7107C15.7652 67.9763 15.8461 68.2947 15.8461 68.6658C15.8461 69.0404 15.7626 69.3562 15.5958 69.6133C15.4307 69.8703 15.1983 70.0644 14.8986 70.1955C14.6007 70.3266 14.2525 70.3922 13.8541 70.3922H12.5058V69.2889H13.5681C13.735 69.2889 13.8771 69.2685 13.9946 69.2277C14.1138 69.1851 14.2049 69.1178 14.2678 69.0259C14.3325 68.934 14.3649 68.814 14.3649 68.6658C14.3649 68.516 14.3325 68.3943 14.2678 68.3006C14.2049 68.2053 14.1138 68.1355 13.9946 68.0912C13.8771 68.0453 13.735 68.0223 13.5681 68.0223H13.0676V72.1185H11.6477ZM14.7122 69.718L16.0197 72.1185H14.4773L13.2004 69.718H14.7122Z" fill="#06376B"></path><path fill-rule="evenodd" clip-rule="evenodd" d="M11.5887 72.1774V66.8293H13.9052C14.3005 66.8293 14.6493 66.9013 14.9499 67.0472C15.2508 67.1933 15.486 67.4043 15.6538 67.68C15.8222 67.9565 15.905 68.2859 15.905 68.6658C15.905 69.0491 15.8196 69.3766 15.6454 69.6452C15.4956 69.8782 15.2929 70.0611 15.0386 70.1938L16.119 72.1774H14.4418L13.5235 70.4511H13.1266V72.1774H11.5887ZM13.0676 70.3921H13.559L14.4772 72.1184H16.0197L14.9576 70.1684C14.9754 70.1599 14.993 70.151 15.0104 70.142C15.2566 70.0136 15.4518 69.8374 15.5958 69.6132C15.7626 69.3561 15.846 69.0403 15.846 68.6658C15.846 68.2946 15.7652 67.9762 15.6034 67.7107C15.4417 67.4451 15.2153 67.2416 14.9241 67.1003C14.633 66.959 14.2934 66.8883 13.9052 66.8883H11.6477V72.1184H13.0676V70.3921ZM13.5681 69.2889C13.7349 69.2889 13.8771 69.2684 13.9946 69.2276C14.1138 69.185 14.2048 69.1178 14.2678 69.0258C14.3325 68.9339 14.3649 68.8139 14.3649 68.6658C14.3649 68.5159 14.3325 68.3942 14.2678 68.3006C14.2048 68.2052 14.1138 68.1354 13.9946 68.0912C13.8771 68.0452 13.7349 68.0222 13.5681 68.0222H13.0676V69.2889H13.5681ZM13.1266 69.2299H13.5681C13.7303 69.2299 13.8655 69.21 13.975 69.1719C14.084 69.133 14.1642 69.0727 14.2192 68.9925L14.2196 68.9919C14.2754 68.9126 14.3059 68.8055 14.3059 68.6658C14.3059 68.5242 14.2753 68.4152 14.2193 68.3341L14.2186 68.3331C14.1633 68.2494 14.0829 68.1869 13.974 68.1465L13.9731 68.1461C13.8643 68.1035 13.7298 68.0812 13.5681 68.0812H13.1266V69.2299Z" fill="#06376B"></path></svg> 