<?xml version="1.0" encoding="UTF-8"?> <svg xmlns="http://www.w3.org/2000/svg" width="77" height="50" viewBox="0 0 77 50" fill="none"><path fill-rule="evenodd" clip-rule="evenodd" d="M76.402 50.0002H58.017V45.1704H76.402V50.0002Z" fill="#06376B"></path><path fill-rule="evenodd" clip-rule="evenodd" d="M13.9284 6.9002L24.9286 0L27.4951 4.09148L4.82981 18.3089V45.1697H22.7423V49.9996H0V15.6372L9.09859 9.92983V4.53393H13.9284V6.9002Z" fill="#06376B"></path><path d="M54.5462 46.8169C54.5294 46.6598 54.4586 46.5375 54.3339 46.45C54.2104 46.3625 54.0497 46.3187 53.8519 46.3187C53.7128 46.3187 53.5935 46.3397 53.4939 46.3816C53.3944 46.4236 53.3183 46.4806 53.2655 46.5525C53.2127 46.6245 53.1858 46.7066 53.1846 46.7989C53.1846 46.8757 53.2019 46.9422 53.2367 46.9986C53.2727 47.0549 53.3213 47.1029 53.3824 47.1425C53.4436 47.1808 53.5113 47.2132 53.5857 47.2396C53.66 47.266 53.735 47.2882 53.8105 47.3062L54.1558 47.3925C54.2949 47.4249 54.4286 47.4686 54.5569 47.5238C54.6864 47.579 54.8022 47.6485 54.9041 47.7324C55.0072 47.8164 55.0888 47.9177 55.1487 48.0364C55.2087 48.1551 55.2386 48.2942 55.2386 48.4537C55.2386 48.6695 55.1835 48.8596 55.0732 49.0239C54.9628 49.187 54.8034 49.3147 54.5947 49.407C54.3873 49.4981 54.1361 49.5437 53.8411 49.5437C53.5545 49.5437 53.3057 49.4993 53.0946 49.4106C52.8848 49.3219 52.7205 49.1924 52.6018 49.0221C52.4843 48.8518 52.4207 48.6444 52.4111 48.3997H53.0676C53.0772 48.5281 53.1168 48.6348 53.1864 48.7199C53.2559 48.805 53.3464 48.8686 53.458 48.9106C53.5707 48.9525 53.6966 48.9735 53.8357 48.9735C53.9808 48.9735 54.1079 48.9519 54.217 48.9088C54.3273 48.8644 54.4136 48.8032 54.476 48.7253C54.5384 48.6462 54.5701 48.5538 54.5713 48.4483C54.5701 48.3524 54.542 48.2732 54.4868 48.2109C54.4316 48.1473 54.3543 48.0946 54.2548 48.0526C54.1564 48.0094 54.0413 47.9711 53.9094 47.9375L53.4903 47.8296C53.187 47.7516 52.9471 47.6335 52.7709 47.4752C52.5958 47.3158 52.5083 47.1041 52.5083 46.8403C52.5083 46.6233 52.567 46.4332 52.6845 46.2701C52.8032 46.107 52.9645 45.9805 53.1684 45.8906C53.3722 45.7995 53.603 45.7539 53.8609 45.7539C54.1223 45.7539 54.3513 45.7995 54.5479 45.8906C54.7458 45.9805 54.9011 46.1058 55.0138 46.2665C55.1265 46.426 55.1847 46.6095 55.1883 46.8169H54.5462Z" fill="#06376B"></path><path d="M47.9243 46.3637V45.8043H50.8633V46.3637H49.7248V49.488H49.0629V46.3637H47.9243Z" fill="#06376B"></path><path d="M43.6776 49.488V45.8043H45.059C45.342 45.8043 45.5794 45.8535 45.7713 45.9518C45.9643 46.0501 46.11 46.188 46.2083 46.3655C46.3079 46.5418 46.3576 46.7474 46.3576 46.9824C46.3576 47.2187 46.3073 47.4237 46.2065 47.5976C46.107 47.7703 45.9601 47.904 45.7659 47.9987C45.5716 48.0922 45.333 48.139 45.05 48.139H44.0661V47.585H44.9601C45.1255 47.585 45.261 47.5622 45.3666 47.5167C45.4721 47.4699 45.55 47.4021 45.6004 47.3134C45.6519 47.2235 45.6777 47.1132 45.6777 46.9824C45.6777 46.8517 45.6519 46.7402 45.6004 46.6479C45.5488 46.5544 45.4703 46.4836 45.3648 46.4357C45.2592 46.3865 45.1231 46.3619 44.9565 46.3619H44.3449V49.488H43.6776ZM45.5806 47.8188L46.4925 49.488H45.7479L44.8521 47.8188H45.5806Z" fill="#06376B"></path><path d="M39.4867 49.488V45.8043H41.8825V46.3637H40.154V47.3638H41.7584V47.9232H40.154V48.9286H41.8969V49.488H39.4867Z" fill="#06376B"></path><path d="M35.1128 49.488V45.8043H36.4942C36.7772 45.8043 37.0146 45.8571 37.2064 45.9626C37.3995 46.0681 37.5452 46.2132 37.6435 46.3979C37.743 46.5813 37.7928 46.79 37.7928 47.0238C37.7928 47.26 37.743 47.4699 37.6435 47.6534C37.544 47.8368 37.3971 47.9813 37.2028 48.0868C37.0086 48.1912 36.7694 48.2433 36.4852 48.2433H35.5697V47.6947H36.3952C36.5607 47.6947 36.6962 47.6659 36.8017 47.6084C36.9073 47.5508 36.9852 47.4717 37.0356 47.371C37.0871 47.2702 37.1129 47.1545 37.1129 47.0238C37.1129 46.8931 37.0871 46.778 37.0356 46.6785C36.9852 46.5789 36.9067 46.5016 36.7999 46.4464C36.6944 46.3901 36.5583 46.3619 36.3916 46.3619H35.7801V49.488H35.1128Z" fill="#06376B"></path><path d="M31.059 45.8043L31.8702 47.1533H31.899L32.7137 45.8043H33.4746L32.3396 47.6462L33.4926 49.488H32.7191L31.899 48.148H31.8702L31.05 49.488H30.2802L31.4439 47.6462L30.2945 45.8043H31.059Z" fill="#06376B"></path><path d="M26.3104 49.488V45.8043H28.7063V46.3637H26.9777V47.3638H28.5821V47.9232H26.9777V48.9286H28.7206V49.488H26.3104Z" fill="#06376B"></path><path d="M63.4089 21.436V28.5715H61.7922L59.214 24.8226H59.1722V28.5715H57.235V21.436H58.8795L61.4159 25.171H61.4717V21.436H63.4089Z" fill="#06376B"></path><path fill-rule="evenodd" clip-rule="evenodd" d="M63.4893 21.3555V28.652H61.7498L59.2526 25.0208V28.652H57.1544V21.3555H58.9221L61.3911 24.9912V21.3555H63.4893ZM61.4159 25.171L58.8794 21.436H57.2349V28.5715H59.1721V24.8225H59.2139L61.7922 28.5715H63.4088V21.436H61.4716V25.171H61.4159Z" fill="#06376B"></path><path d="M50.1505 28.5715V21.436H55.2931V22.9969H52.0877V24.2233H55.0283V25.7842H52.0877V27.0106H55.2792V28.5715H50.1505Z" fill="#06376B"></path><path fill-rule="evenodd" clip-rule="evenodd" d="M50.0701 28.652V21.3555H55.3736V23.0774H52.1682V24.1428H55.1088V25.8647H52.1682V26.9301H55.3597V28.652H50.0701ZM52.0877 27.0106V25.7842H55.0283V24.2233H52.0877V22.9969H55.2931V21.436H50.1506V28.5715H55.2792V27.0106H52.0877Z" fill="#06376B"></path><path d="M37.3144 28.5715L35.21 21.436H37.3701L38.3457 25.826H38.4014L39.5582 21.436H41.2584L42.4151 25.84H42.4709L43.4464 21.436H45.6066L43.5022 28.5715H41.6486L40.4362 24.5857H40.3804L39.1679 28.5715H37.3144Z" fill="#06376B"></path><path fill-rule="evenodd" clip-rule="evenodd" d="M37.2541 28.652L35.1022 21.3555H37.4346L38.3777 25.5996L39.496 21.3555H41.3204L42.4386 25.6129L43.3817 21.3555H45.7141L43.5623 28.652H41.5889L40.4082 24.7706L39.2275 28.652H37.2541ZM40.3803 24.5856H40.436L41.6485 28.5715H43.5021L45.6065 21.436H43.4463L42.4708 25.8399H42.415L41.2583 21.436H39.558L38.4013 25.826H38.3456L37.37 21.436H35.2098L37.3143 28.5715H39.1678L40.3803 24.5856Z" fill="#06376B"></path><path d="M31.6636 21.436H33.6007V26.0072C33.6007 26.5507 33.4707 27.0211 33.2105 27.4183C32.9527 27.8132 32.5927 28.1186 32.1304 28.3346C31.6682 28.5483 31.1316 28.6552 30.5208 28.6552C29.9052 28.6552 29.3664 28.5483 28.9041 28.3346C28.4419 28.1186 28.0819 27.8132 27.824 27.4183C27.5685 27.0211 27.4408 26.5507 27.4408 26.0072V21.436H29.378V25.84C29.378 26.0606 29.4267 26.2581 29.5243 26.4323C29.6219 26.6042 29.7566 26.7389 29.9285 26.8364C30.1027 26.934 30.3001 26.9828 30.5208 26.9828C30.7438 26.9828 30.9412 26.934 31.1131 26.8364C31.285 26.7389 31.4197 26.6042 31.5172 26.4323C31.6148 26.2581 31.6636 26.0606 31.6636 25.84V21.436Z" fill="#06376B"></path><path fill-rule="evenodd" clip-rule="evenodd" d="M31.5831 21.3555H33.6813V26.0071C33.6813 26.564 33.5478 27.0502 33.2779 27.4623C33.0112 27.8707 32.6392 28.1857 32.1646 28.4075C31.6899 28.6269 31.1411 28.7356 30.5208 28.7356C29.896 28.7356 29.3452 28.6271 28.8704 28.4076C28.3957 28.1858 28.0234 27.8707 27.7567 27.4622C27.4916 27.0502 27.3604 26.5637 27.3604 26.0071V21.3555H29.4585V25.8399C29.4585 26.0482 29.5044 26.2317 29.5945 26.3927C29.6848 26.5517 29.8089 26.6759 29.968 26.7662C30.1289 26.8563 30.3125 26.9022 30.5208 26.9022C30.7317 26.9022 30.9151 26.8562 31.0734 26.7664C31.2326 26.676 31.3568 26.5518 31.4471 26.3927C31.5372 26.2318 31.5831 26.0482 31.5831 25.8399V21.3555ZM31.5173 26.4322C31.4197 26.6041 31.285 26.7388 31.1131 26.8364C30.9412 26.9339 30.7438 26.9827 30.5208 26.9827C30.3002 26.9827 30.1027 26.9339 29.9285 26.8364C29.7566 26.7388 29.6219 26.6041 29.5244 26.4322C29.4268 26.258 29.378 26.0606 29.378 25.8399V21.436H27.4408V26.0071C27.4408 26.5507 27.5686 27.021 27.8241 27.4182C28.0819 27.8131 28.442 28.1185 28.9042 28.3345C29.3664 28.5482 29.9053 28.6551 30.5208 28.6551C31.1317 28.6551 31.6683 28.5482 32.1305 28.3345C32.5927 28.1185 32.9527 27.8131 33.2106 27.4182C33.4707 27.021 33.6008 26.5507 33.6008 26.0071V21.436H31.6636V25.8399C31.6636 26.0606 31.6148 26.258 31.5173 26.4322Z" fill="#06376B"></path><path d="M25.5634 25.0038C25.5634 25.7982 25.409 26.4683 25.1 27.0141C24.7911 27.5577 24.3742 27.97 23.8492 28.251C23.3243 28.5297 22.739 28.6691 22.0932 28.6691C21.4429 28.6691 20.8552 28.5286 20.3303 28.2475C19.8077 27.9642 19.3919 27.5507 19.083 27.0072C18.7763 26.4613 18.623 25.7935 18.623 25.0038C18.623 24.2094 18.7763 23.5405 19.083 22.9969C19.3919 22.4511 19.8077 22.0388 20.3303 21.7601C20.8552 21.479 21.4429 21.3385 22.0932 21.3385C22.739 21.3385 23.3243 21.479 23.8492 21.7601C24.3742 22.0388 24.7911 22.4511 25.1 22.9969C25.409 23.5405 25.5634 24.2094 25.5634 25.0038ZM23.5705 25.0038C23.5705 24.5764 23.5136 24.2164 23.3998 23.9237C23.2883 23.6287 23.1222 23.4058 22.9016 23.2548C22.6832 23.1015 22.4138 23.0248 22.0932 23.0248C21.7727 23.0248 21.5021 23.1015 21.2814 23.2548C21.0631 23.4058 20.897 23.6287 20.7832 23.9237C20.6717 24.2164 20.616 24.5764 20.616 25.0038C20.616 25.4312 20.6717 25.7924 20.7832 26.0874C20.897 26.38 21.0631 26.603 21.2814 26.7563C21.5021 26.9073 21.7727 26.9828 22.0932 26.9828C22.4138 26.9828 22.6832 26.9073 22.9016 26.7563C23.1222 26.603 23.2883 26.38 23.3998 26.0874C23.5136 25.7924 23.5705 25.4312 23.5705 25.0038Z" fill="#06376B"></path><path fill-rule="evenodd" clip-rule="evenodd" d="M25.17 27.0536L25.17 27.0537C24.8539 27.6098 24.4262 28.0332 23.8872 28.3218L23.8869 28.3219C23.3494 28.6073 22.7509 28.7494 22.0932 28.7494C21.4308 28.7494 20.8299 28.6062 20.2922 28.3183L20.2918 28.3181C19.7553 28.0272 19.3289 27.6027 19.0129 27.0468L19.0127 27.0464C18.6978 26.4858 18.5425 25.8036 18.5425 25.0036C18.5425 24.1991 18.6977 23.5157 19.0128 22.9572L19.0128 22.9571C19.3288 22.3988 19.7554 21.9752 20.2923 21.6889C20.8299 21.401 21.4308 21.2578 22.0932 21.2578C22.751 21.2578 23.3495 21.4011 23.887 21.6889C24.4262 21.9752 24.8539 22.3987 25.17 22.957C25.4874 23.5155 25.6439 24.199 25.6439 25.0036C25.6439 25.8083 25.4874 26.4928 25.17 27.0536ZM23.8492 21.7599C23.3242 21.4788 22.7389 21.3383 22.0932 21.3383C21.4428 21.3383 20.8551 21.4788 20.3302 21.7599C19.8076 22.0386 19.3918 22.4509 19.0829 22.9968C18.7763 23.5403 18.623 24.2092 18.623 25.0036C18.623 25.7933 18.7763 26.4611 19.0829 27.007C19.3918 27.5505 19.8076 27.964 20.3302 28.2473C20.8551 28.5284 21.4428 28.6689 22.0932 28.6689C22.7389 28.6689 23.3242 28.5296 23.8492 28.2508C24.3741 27.9698 24.791 27.5575 25.1 27.014C25.4089 26.4681 25.5634 25.798 25.5634 25.0036C25.5634 24.2092 25.4089 23.5403 25.1 22.9968C24.791 22.4509 24.3741 22.0386 23.8492 21.7599ZM23.3244 23.952L23.3244 23.952C23.2177 23.6696 23.0608 23.4611 22.856 23.321L22.8552 23.3205L22.8552 23.3205C22.653 23.1785 22.4006 23.1051 22.0932 23.1051C21.7858 23.1051 21.532 23.1784 21.3273 23.3207L21.3272 23.3208C21.1245 23.4609 20.9674 23.6696 20.8583 23.9523C20.7514 24.2332 20.6964 24.5828 20.6964 25.0036C20.6964 25.4243 20.7513 25.7751 20.8583 26.0584C20.9673 26.3386 21.1243 26.5474 21.3272 26.69C21.532 26.8299 21.7858 26.9021 22.0932 26.9021C22.4007 26.9021 22.6533 26.8298 22.8556 26.69C23.0608 26.5474 23.2178 26.3386 23.3245 26.0585L23.3246 26.0582C23.4339 25.7751 23.4899 25.4244 23.4899 25.0036C23.4899 24.5828 23.4338 24.2334 23.3247 23.9527L23.3244 23.952ZM22.9015 26.7561C22.6831 26.9071 22.4137 26.9826 22.0932 26.9826C21.7726 26.9826 21.502 26.9071 21.2814 26.7561C21.063 26.6028 20.897 26.3798 20.7831 26.0872C20.6716 25.7922 20.6159 25.431 20.6159 25.0036C20.6159 24.5762 20.6716 24.2162 20.7831 23.9235C20.897 23.6285 21.063 23.4056 21.2814 23.2546C21.502 23.1013 21.7726 23.0246 22.0932 23.0246C22.4137 23.0246 22.6831 23.1013 22.9015 23.2546C23.1221 23.4056 23.2882 23.6285 23.3997 23.9235C23.5135 24.2162 23.5704 24.5762 23.5704 25.0036C23.5704 25.431 23.5135 25.7922 23.3997 26.0872C23.2882 26.3798 23.1221 26.6028 22.9015 26.7561Z" fill="#06376B"></path><path d="M11.1162 28.5715V21.436H14.2101C14.7536 21.436 15.2101 21.5092 15.5794 21.6555C15.951 21.8019 16.2309 22.0086 16.4191 22.2757C16.6095 22.5428 16.7048 22.8576 16.7048 23.2199C16.7048 23.4824 16.6467 23.7216 16.5305 23.9376C16.4167 24.1537 16.2565 24.3348 16.0497 24.4812C15.843 24.6252 15.6014 24.7251 15.325 24.7808V24.8505C15.6316 24.8621 15.9104 24.9399 16.1612 25.0839C16.4121 25.2256 16.6118 25.4219 16.7605 25.6727C16.9092 25.9213 16.9835 26.2139 16.9835 26.5507C16.9835 26.941 16.8813 27.2882 16.6769 27.5925C16.4748 27.8968 16.1868 28.136 15.8128 28.3102C15.4389 28.4844 14.9929 28.5715 14.4749 28.5715H11.1162ZM13.0534 27.0246H13.9593C14.2844 27.0246 14.5283 26.9642 14.6909 26.8434C14.8535 26.7203 14.9348 26.5391 14.9348 26.2999C14.9348 26.1326 14.8965 25.991 14.8198 25.8748C14.7432 25.7587 14.634 25.6704 14.4923 25.61C14.353 25.5496 14.1846 25.5194 13.9871 25.5194H13.0534V27.0246ZM13.0534 24.3209H13.8478C14.0173 24.3209 14.1671 24.2942 14.2972 24.2408C14.4273 24.1873 14.5283 24.1107 14.6003 24.0108C14.6747 23.9086 14.7118 23.7843 14.7118 23.638C14.7118 23.4173 14.6329 23.2489 14.4749 23.1328C14.317 23.0143 14.1172 22.9551 13.8756 22.9551H13.0534V24.3209Z" fill="#06376B"></path><path d="M69.2097 39.2731V32.1376H74.3523V33.6985H71.1469V34.9249H74.0875V36.4858H71.1469V37.7122H74.3384V39.2731H69.2097Z" fill="#06376B"></path><path fill-rule="evenodd" clip-rule="evenodd" d="M69.1293 39.3535V32.057H74.4328V33.7789H71.2274V34.8443H74.168V36.5662H71.2274V37.6316H74.4189V39.3535H69.1293ZM71.1469 37.7121V36.4857H74.0875V34.9248H71.1469V33.6984H74.3523V32.1375H69.2098V39.273H74.3384V37.7121H71.1469Z" fill="#06376B"></path><path d="M67.3106 32.1376V39.2731H65.3734V32.1376H67.3106Z" fill="#06376B"></path><path fill-rule="evenodd" clip-rule="evenodd" d="M67.3911 32.057V39.3535H65.293V32.057H67.3911ZM67.3106 32.1375H65.3735V39.273H67.3106V32.1375Z" fill="#06376B"></path><path d="M57.4614 33.6985V32.1376H63.6632V33.6985H61.517V39.2731H59.6077V33.6985H57.4614Z" fill="#06376B"></path><path fill-rule="evenodd" clip-rule="evenodd" d="M57.381 33.7789V32.057H63.7437V33.7789H61.5975V39.3535H59.5272V33.7789H57.381ZM59.6077 33.6984V39.273H61.517V33.6984H63.6632V32.1375H57.4615V33.6984H59.6077Z" fill="#06376B"></path><path d="M51.6209 39.2731H49.5304L51.8857 32.1376H54.5336L56.8889 39.2731H54.7984L53.2375 34.1026H53.1818L51.6209 39.2731ZM51.2307 36.4579H55.1607V37.9073H51.2307V36.4579Z" fill="#06376B"></path><path fill-rule="evenodd" clip-rule="evenodd" d="M51.6807 39.3535H49.4191L51.8275 32.057H54.5918L57.0002 39.3535H54.7386L54.3263 37.9877H52.093L51.6807 39.3535ZM51.6209 39.273H49.5304L51.8857 32.1375H54.5336L56.8889 39.273H54.7984L54.3861 37.9072H52.0332L51.6209 39.273ZM52.4707 36.4578H53.9485L53.2375 34.1026H53.1818L52.4707 36.4578ZM52.5791 36.3773H53.8402L53.2096 34.2888L52.5791 36.3773Z" fill="#06376B"></path><path d="M44.0973 32.1376L45.5607 37.1687H45.6164L47.0798 32.1376H49.2678L46.9125 39.2731H44.2646L41.9093 32.1376H44.0973Z" fill="#06376B"></path><path fill-rule="evenodd" clip-rule="evenodd" d="M44.1578 32.057L45.5886 36.9762L47.0193 32.057H49.3791L46.9707 39.3535H44.2064L41.798 32.057H44.1578ZM45.6164 37.1686H45.5607L44.0973 32.1375H41.9093L44.2646 39.273H46.9125L49.2678 32.1375H47.0798L45.6164 37.1686Z" fill="#06376B"></path><path d="M40.7192 35.7053C40.7192 36.4997 40.5647 37.1698 40.2558 37.7157C39.9469 38.2592 39.5299 38.6715 39.005 38.9526C38.4801 39.2313 37.8947 39.3706 37.249 39.3706C36.5986 39.3706 36.011 39.2301 35.486 38.9491C34.9634 38.6657 34.5476 38.2522 34.2387 37.7087C33.9321 37.1629 33.7788 36.4951 33.7788 35.7053C33.7788 34.911 33.9321 34.242 34.2387 33.6985C34.5476 33.1526 34.9634 32.7403 35.486 32.4616C36.011 32.1806 36.5986 32.04 37.249 32.04C37.8947 32.04 38.4801 32.1806 39.005 32.4616C39.5299 32.7403 39.9469 33.1526 40.2558 33.6985C40.5647 34.242 40.7192 34.911 40.7192 35.7053ZM38.7263 35.7053C38.7263 35.278 38.6694 34.9179 38.5556 34.6253C38.4441 34.3303 38.278 34.1073 38.0573 33.9563C37.839 33.803 37.5695 33.7264 37.249 33.7264C36.9285 33.7264 36.6579 33.803 36.4372 33.9563C36.2189 34.1073 36.0528 34.3303 35.939 34.6253C35.8275 34.9179 35.7717 35.278 35.7717 35.7053C35.7717 36.1327 35.8275 36.4939 35.939 36.7889C36.0528 37.0816 36.2189 37.3046 36.4372 37.4579C36.6579 37.6088 36.9285 37.6843 37.249 37.6843C37.5695 37.6843 37.839 37.6088 38.0573 37.4579C38.278 37.3046 38.4441 37.0816 38.5556 36.7889C38.6694 36.4939 38.7263 36.1327 38.7263 35.7053Z" fill="#06376B"></path><path fill-rule="evenodd" clip-rule="evenodd" d="M40.3259 37.7553L40.3258 37.7554C40.0098 38.3114 39.5821 38.7349 39.043 39.0234L39.0428 39.0236C38.5052 39.309 37.9068 39.4511 37.2491 39.4511C36.5867 39.4511 35.9858 39.3078 35.4481 39.02L35.4477 39.0198C34.9112 38.7288 34.4847 38.3043 34.1688 37.7484L34.1686 37.7481C33.8537 37.1874 33.6984 36.5053 33.6984 35.7053C33.6984 34.9007 33.8536 34.2173 34.1687 33.6589L34.1687 33.6588C34.4847 33.1005 34.9113 32.6769 35.4481 32.3906C35.9858 32.1027 36.5867 31.9595 37.2491 31.9595C37.9068 31.9595 38.5054 32.1027 39.0429 32.3905C39.5821 32.6768 40.0098 33.1003 40.3258 33.6586C40.6433 34.2171 40.7997 34.9007 40.7997 35.7053C40.7997 36.5099 40.6433 37.1945 40.3259 37.7553ZM39.0051 32.4615C38.4801 32.1805 37.8948 32.04 37.2491 32.04C36.5987 32.04 36.011 32.1805 35.4861 32.4615C34.9635 32.7403 34.5477 33.1526 34.2388 33.6984C33.9322 34.2419 33.7789 34.9109 33.7789 35.7053C33.7789 36.495 33.9322 37.1628 34.2388 37.7086C34.5477 38.2522 34.9635 38.6656 35.4861 38.949C36.011 39.2301 36.5987 39.3706 37.2491 39.3706C37.8948 39.3706 38.4801 39.2312 39.0051 38.9525C39.53 38.6714 39.9469 38.2591 40.2559 37.7156C40.5648 37.1698 40.7192 36.4997 40.7192 35.7053C40.7192 34.9109 40.5648 34.2419 40.2559 33.6984C39.9469 33.1526 39.53 32.7403 39.0051 32.4615ZM38.4803 34.6537L38.4803 34.6537C38.3736 34.3712 38.2167 34.1628 38.0119 34.0227L38.0111 34.0221L38.0111 34.0221C37.8089 33.8801 37.5564 33.8068 37.2491 33.8068C36.9417 33.8068 36.6879 33.8801 36.4832 34.0223L36.483 34.0224C36.2804 34.1626 36.1233 34.3712 36.0142 34.654C35.9072 34.9348 35.8523 35.2844 35.8523 35.7053C35.8523 36.126 35.9072 36.4768 36.0142 36.76C36.1232 37.0402 36.2802 37.2491 36.4831 37.3916C36.6878 37.5316 36.9417 37.6038 37.2491 37.6038C37.5566 37.6038 37.8092 37.5315 38.0114 37.3917C38.2167 37.2491 38.3737 37.0403 38.4804 36.7602L38.4805 36.7599C38.5897 36.4767 38.6458 36.126 38.6458 35.7053C38.6458 35.2845 38.5897 34.935 38.4806 34.6544L38.4803 34.6537ZM38.0574 37.4578C37.839 37.6088 37.5696 37.6843 37.2491 37.6843C36.9285 37.6843 36.6579 37.6088 36.4373 37.4578C36.2189 37.3045 36.0528 37.0815 35.939 36.7888C35.8275 36.4938 35.7718 36.1327 35.7718 35.7053C35.7718 35.2779 35.8275 34.9179 35.939 34.6252C36.0528 34.3302 36.2189 34.1072 36.4373 33.9562C36.6579 33.8029 36.9285 33.7263 37.2491 33.7263C37.5696 33.7263 37.839 33.8029 38.0574 33.9562C38.278 34.1072 38.4441 34.3302 38.5556 34.6252C38.6694 34.9179 38.7263 35.2779 38.7263 35.7053C38.7263 36.1327 38.6694 36.4938 38.5556 36.7888C38.4441 37.0815 38.278 37.3045 38.0574 37.4578Z" fill="#06376B"></path><path d="M31.9092 32.1376V39.2731H30.2926L27.7143 35.5241H27.6725V39.2731H25.7354V32.1376H27.3799L29.9163 35.8726H29.9721V32.1376H31.9092Z" fill="#06376B"></path><path fill-rule="evenodd" clip-rule="evenodd" d="M31.9897 32.057V39.3535H30.2502L27.753 35.7224V39.3535H25.6548V32.057H27.4224L29.8915 35.6928V32.057H31.9897ZM29.9162 35.8725L27.3798 32.1375H25.7353V39.273H27.6725V35.5241H27.7143L30.2925 39.273H31.9092V32.1375H29.972V35.8725H29.9162Z" fill="#06376B"></path><path d="M18.6509 39.2731V32.1376H23.7935V33.6985H20.5881V34.9249H23.5287V36.4858H20.5881V37.7122H23.7795V39.2731H18.6509Z" fill="#06376B"></path><path fill-rule="evenodd" clip-rule="evenodd" d="M18.5704 39.3535V32.057H23.874V33.7789H20.6686V34.8443H23.6092V36.5662H20.6686V37.6316H23.8601V39.3535H18.5704ZM20.5881 37.7121V36.4857H23.5287V34.9248H20.5881V33.6984H23.7935V32.1375H18.6509V39.273H23.7796V37.7121H20.5881Z" fill="#06376B"></path><path d="M11.1162 39.2731V32.1376H14.1962C14.7258 32.1376 15.1892 32.234 15.5863 32.4268C15.9835 32.6195 16.2925 32.8971 16.5131 33.2595C16.7338 33.6218 16.8441 34.0562 16.8441 34.5625C16.8441 35.0735 16.7303 35.5044 16.5027 35.8551C16.2774 36.2059 15.9603 36.4707 15.5515 36.6495C15.145 36.8284 14.67 36.9178 14.1265 36.9178H12.2869V35.4127H13.7363C13.9639 35.4127 14.1579 35.3848 14.3181 35.329C14.4807 35.271 14.605 35.1792 14.6909 35.0538C14.7792 34.9284 14.8233 34.7646 14.8233 34.5625C14.8233 34.3581 14.7792 34.192 14.6909 34.0643C14.605 33.9342 14.4807 33.839 14.3181 33.7786C14.1579 33.7159 13.9639 33.6845 13.7363 33.6845H13.0534V39.2731H11.1162ZM15.2972 35.998L17.081 39.2731H14.9766L13.2346 35.998H15.2972Z" fill="#06376B"></path><path fill-rule="evenodd" clip-rule="evenodd" d="M11.0356 39.3535V32.057H14.1961C14.7355 32.057 15.2113 32.1552 15.6214 32.3543C16.0319 32.5535 16.3528 32.8414 16.5818 33.2175C16.8115 33.5947 16.9245 34.0442 16.9245 34.5625C16.9245 35.0854 16.808 35.5323 16.5703 35.8987C16.366 36.2166 16.0894 36.4661 15.7424 36.6472L17.2165 39.3535H14.9282L13.6754 36.9982H13.1338V39.3535H11.0356ZM13.0533 36.9177H13.7238L14.9766 39.273H17.081L15.6319 36.6126C15.6562 36.6009 15.6803 36.5889 15.7039 36.5765C16.0399 36.4014 16.3061 36.1609 16.5026 35.8551C16.7302 35.5043 16.844 35.0735 16.844 34.5625C16.844 34.0561 16.7337 33.6217 16.5131 33.2594C16.2924 32.897 15.9835 32.6195 15.5863 32.4267C15.1891 32.2339 14.7257 32.1375 14.1961 32.1375H11.1161V39.273H13.0533V36.9177ZM13.7362 35.4126C13.9638 35.4126 14.1578 35.3847 14.3181 35.329C14.4806 35.2709 14.6049 35.1791 14.6909 35.0537C14.7791 34.9283 14.8233 34.7645 14.8233 34.5625C14.8233 34.3581 14.7791 34.192 14.6909 34.0642C14.6049 33.9342 14.4806 33.8389 14.3181 33.7785C14.1578 33.7158 13.9638 33.6845 13.7362 33.6845H13.0533V35.4126H13.7362ZM13.1338 35.3321H13.7362C13.9576 35.3321 14.1419 35.3049 14.2913 35.253C14.44 35.1999 14.5494 35.1177 14.6245 35.0082L14.625 35.0074C14.7011 34.8992 14.7428 34.7532 14.7428 34.5625C14.7428 34.3693 14.7011 34.2206 14.6246 34.11L14.6237 34.1086C14.5482 33.9944 14.4385 33.9091 14.29 33.854L14.2887 33.8535C14.1403 33.7954 13.9569 33.765 13.7362 33.765H13.1338V35.3321Z" fill="#06376B"></path></svg> 