<?xml version="1.0" encoding="UTF-8"?>
<svg xmlns="http://www.w3.org/2000/svg" width="95" height="64" viewBox="0 0 95 64" fill="none">
    <path fill-rule="evenodd" clip-rule="evenodd" d="M94.9565 63.0569H72.1171V57.0569H94.9565V63.0569Z" fill="#FFCC26"></path>
    <path fill-rule="evenodd" clip-rule="evenodd" d="M17.3465 9.51512L31.0119 0.943115L34.2002 6.0259L6.04346 23.688V57.0568H28.2959V63.0568H0.043457V20.3689L11.3465 13.2788V6.57554H17.3465V9.51512Z" fill="#FFCC26"></path>
    <path d="M67.8053 59.1025C67.7844 58.9074 67.6965 58.7555 67.5416 58.6467C67.3882 58.538 67.1885 58.4836 66.9428 58.4836C66.77 58.4836 66.6217 58.5097 66.4981 58.5618C66.3745 58.6139 66.2799 58.6847 66.2143 58.7741C66.1488 58.8635 66.1153 58.9655 66.1138 59.0802C66.1138 59.1755 66.1354 59.2582 66.1786 59.3282C66.2233 59.3982 66.2836 59.4578 66.3596 59.507C66.4355 59.5547 66.5197 59.5949 66.6121 59.6276C66.7044 59.6604 66.7975 59.688 66.8914 59.7103L67.3204 59.8176C67.4932 59.8578 67.6593 59.9122 67.8187 59.9807C67.9795 60.0492 68.1233 60.1356 68.2499 60.2399C68.378 60.3442 68.4793 60.47 68.5538 60.6175C68.6283 60.765 68.6655 60.9378 68.6655 61.1359C68.6655 61.404 68.597 61.6401 68.4599 61.8442C68.3229 62.0468 68.1248 62.2055 67.8656 62.3202C67.6079 62.4334 67.2958 62.49 66.9293 62.49C66.5733 62.49 66.2642 62.4349 66.002 62.3246C65.7414 62.2144 65.5373 62.0535 65.3898 61.842C65.2438 61.6305 65.1649 61.3728 65.153 61.0689H65.9685C65.9804 61.2283 66.0296 61.3608 66.116 61.4666C66.2024 61.5724 66.3149 61.6513 66.4534 61.7035C66.5934 61.7556 66.7498 61.7817 66.9226 61.7817C67.1029 61.7817 67.2608 61.7548 67.3964 61.7012C67.5334 61.6461 67.6406 61.5701 67.7181 61.4733C67.7956 61.375 67.835 61.2603 67.8365 61.1292C67.835 61.01 67.8 60.9117 67.7315 60.8343C67.663 60.7553 67.5669 60.6898 67.4433 60.6376C67.3211 60.584 67.1781 60.5363 67.0143 60.4946L66.4936 60.3605C66.1168 60.2637 65.8188 60.117 65.5998 59.9204C65.3824 59.7222 65.2736 59.4593 65.2736 59.1316C65.2736 58.862 65.3466 58.6259 65.4926 58.4233C65.6401 58.2207 65.8404 58.0635 66.0937 57.9518C66.3469 57.8386 66.6337 57.782 66.9539 57.782C67.2787 57.782 67.5632 57.8386 67.8075 57.9518C68.0533 58.0635 68.2462 58.2192 68.3862 58.4188C68.5262 58.6169 68.5985 58.8448 68.603 59.1025H67.8053Z" fill="#06376B"></path>
    <path d="M59.5791 58.5394V57.8445H63.2302V58.5394H61.8158V62.4207H60.9935V58.5394H59.5791Z" fill="#06376B"></path>
    <path d="M54.3035 62.4207V57.8445H56.0195C56.3711 57.8445 56.666 57.9056 56.9044 58.0277C57.1442 58.1499 57.3252 58.3212 57.4473 58.5416C57.571 58.7606 57.6328 59.0161 57.6328 59.3081C57.6328 59.6015 57.5702 59.8562 57.4451 60.0722C57.3215 60.2867 57.139 60.4528 56.8977 60.5705C56.6563 60.6867 56.3599 60.7448 56.0084 60.7448H54.7861V60.0566H55.8966C56.1022 60.0566 56.2705 60.0283 56.4016 59.9717C56.5327 59.9136 56.6295 59.8294 56.6921 59.7192C56.7562 59.6075 56.7882 59.4704 56.7882 59.3081C56.7882 59.1457 56.7562 59.0071 56.6921 58.8924C56.628 58.7763 56.5305 58.6884 56.3994 58.6288C56.2683 58.5677 56.0992 58.5372 55.8922 58.5372H55.1325V62.4207H54.3035ZM56.6675 60.3471L57.8004 62.4207H56.8753L55.7626 60.3471H56.6675Z" fill="#06376B"></path>
    <path d="M49.0972 62.4207V57.8445H52.0735V58.5394H49.9262V59.7818H51.9193V60.4767H49.9262V61.7257H52.0913V62.4207H49.0972Z" fill="#06376B"></path>
    <path d="M43.6636 62.4207V57.8445H45.3796C45.7312 57.8445 46.0261 57.91 46.2645 58.0411C46.5043 58.1722 46.6853 58.3524 46.8075 58.5819C46.9311 58.8098 46.9929 59.069 46.9929 59.3594C46.9929 59.6529 46.9311 59.9136 46.8075 60.1415C46.6838 60.3694 46.5013 60.5489 46.26 60.68C46.0187 60.8096 45.7215 60.8744 45.3685 60.8744H44.2311V60.1929H45.2567C45.4623 60.1929 45.6306 60.1571 45.7617 60.0856C45.8928 60.0141 45.9896 59.9158 46.0522 59.7907C46.1163 59.6656 46.1483 59.5218 46.1483 59.3594C46.1483 59.1971 46.1163 59.0541 46.0522 58.9304C45.9896 58.8068 45.8921 58.7107 45.7595 58.6422C45.6284 58.5722 45.4593 58.5372 45.2523 58.5372H44.4926V62.4207H43.6636Z" fill="#06376B"></path>
    <path d="M38.6276 57.8445L39.6353 59.5203H39.671L40.6833 57.8445H41.6284L40.2185 60.1326L41.6508 62.4207H40.69L39.671 60.756H39.6353L38.6164 62.4207H37.66L39.1057 60.1326L37.6779 57.8445H38.6276Z" fill="#06376B"></path>
    <path d="M32.7285 62.4207V57.8445H35.7048V58.5394H33.5575V59.7818H35.5506V60.4767H33.5575V61.7257H35.7227V62.4207H32.7285Z" fill="#06376B"></path>
    <path d="M78.8152 27.5725V36.4368H76.8069L73.604 31.7796H73.552V36.4368H71.1455V27.5725H73.1885L76.3394 32.2124H76.4087V27.5725H78.8152Z" fill="#06376B"></path>
    <path fill-rule="evenodd" clip-rule="evenodd" d="M78.9152 27.4724V36.5367H76.7543L73.6521 32.0259V36.5367H71.0455V27.4724H73.2415L76.3087 31.9891V27.4724H78.9152ZM76.3395 32.2123L73.1885 27.5724H71.1455V36.4367H73.5521V31.7795H73.604L76.8069 36.4367H78.8152V27.5724H76.4087V32.2123H76.3395Z" fill="#06376B"></path>
    <path d="M62.3446 36.4368V27.5725H68.7331V29.5116H64.7511V31.0351H68.4042V32.9742H64.7511V34.4978H68.7158V36.4368H62.3446Z" fill="#06376B"></path>
    <path fill-rule="evenodd" clip-rule="evenodd" d="M62.2446 36.5367V27.4724H68.8332V29.6115H64.8512V30.935H68.5042V33.0741H64.8512V34.3977H68.8159V36.5367H62.2446ZM64.7512 34.4977V32.9741H68.4042V31.035H64.7512V29.5115H68.7332V27.5724H62.3446V36.4367H68.7159V34.4977H64.7512Z" fill="#06376B"></path>
    <path d="M46.3985 36.4368L43.7842 27.5725H46.4677L47.6796 33.0261H47.7489L49.1859 27.5725H51.2981L52.7351 33.0435H52.8043L54.0162 27.5725H56.6998L54.0855 36.4368H51.7828L50.2766 31.4853H50.2073L48.7011 36.4368H46.3985Z" fill="#06376B"></path>
    <path fill-rule="evenodd" clip-rule="evenodd" d="M46.3237 36.5367L43.6504 27.4724H46.5479L47.7195 32.7448L49.1088 27.4724H51.3752L52.7643 32.7613L53.9359 27.4724H56.8335L54.1602 36.5367H51.7087L50.2419 31.715L48.7752 36.5367H46.3237ZM50.2073 31.4852H50.2766L51.7828 36.4367H54.0854L56.6997 27.5724H54.0162L52.8043 33.0434H52.735L51.298 27.5724H49.1858L47.7488 33.026H47.6796L46.4677 27.5724H43.7841L46.3984 36.4367H48.7011L50.2073 31.4852Z" fill="#06376B"></path>
    <path d="M39.3786 27.5725H41.7851V33.2512C41.7851 33.9264 41.6235 34.5107 41.3003 35.0042C40.98 35.4947 40.5328 35.8741 39.9586 36.1425C39.3843 36.408 38.7178 36.5407 37.9589 36.5407C37.1942 36.5407 36.5248 36.408 35.9506 36.1425C35.3763 35.8741 34.9291 35.4947 34.6088 35.0042C34.2914 34.5107 34.1327 33.9264 34.1327 33.2512V27.5725H36.5392V33.0435C36.5392 33.3176 36.5998 33.5628 36.721 33.7793C36.8422 33.9928 37.0096 34.1601 37.2231 34.2813C37.4395 34.4025 37.6848 34.4631 37.9589 34.4631C38.2359 34.4631 38.4812 34.4025 38.6947 34.2813C38.9082 34.1601 39.0756 33.9928 39.1968 33.7793C39.318 33.5628 39.3786 33.3176 39.3786 33.0435V27.5725Z" fill="#06376B"></path>
    <path fill-rule="evenodd" clip-rule="evenodd" d="M39.2786 27.4724H41.8851V33.2511C41.8851 33.9429 41.7193 34.5469 41.384 35.0589C41.0527 35.5662 40.5905 35.9575 40.0009 36.233C39.4112 36.5056 38.7294 36.6406 37.9589 36.6406C37.1827 36.6406 36.4985 36.5059 35.9086 36.2332C35.319 35.9576 34.8564 35.5661 34.5251 35.0587C34.1958 34.5469 34.0327 33.9425 34.0327 33.2511V27.4724H36.6392V33.0434C36.6392 33.3021 36.6962 33.5301 36.8081 33.73C36.9203 33.9277 37.0746 34.0819 37.2722 34.1941C37.4721 34.306 37.7002 34.363 37.9589 34.363C38.2209 34.363 38.4487 34.3059 38.6454 34.1943C38.8431 34.082 38.9974 33.9278 39.1097 33.7301C39.2216 33.5302 39.2786 33.3021 39.2786 33.0434V27.4724ZM39.1968 33.7792C39.0756 33.9927 38.9082 34.1601 38.6947 34.2812C38.4812 34.4024 38.2359 34.463 37.9589 34.463C37.6848 34.463 37.4395 34.4024 37.2231 34.2812C37.0096 34.1601 36.8422 33.9927 36.721 33.7792C36.5998 33.5627 36.5392 33.3175 36.5392 33.0434V27.5724H34.1327V33.2511C34.1327 33.9263 34.2914 34.5106 34.6088 35.0041C34.9291 35.4946 35.3764 35.8741 35.9506 36.1424C36.5248 36.4079 37.1943 36.5406 37.9589 36.5406C38.7178 36.5406 39.3844 36.4079 39.9586 36.1424C40.5328 35.8741 40.9801 35.4946 41.3003 35.0041C41.6235 34.5106 41.7851 33.9263 41.7851 33.2511V27.5724H39.3786V33.0434C39.3786 33.3175 39.318 33.5627 39.1968 33.7792Z" fill="#06376B"></path>
    <path d="M31.8004 32.0045C31.8004 32.9914 31.6085 33.8238 31.2247 34.5019C30.841 35.1771 30.323 35.6893 29.6709 36.0385C29.0188 36.3847 28.2916 36.5579 27.4894 36.5579C26.6815 36.5579 25.9515 36.3833 25.2993 36.0341C24.6501 35.6821 24.1336 35.1685 23.7498 34.4933C23.3689 33.8152 23.1785 32.9856 23.1785 32.0045C23.1785 31.0177 23.3689 30.1866 23.7498 29.5114C24.1336 28.8333 24.6501 28.3212 25.2993 27.9749C25.9515 27.6257 26.6815 27.4512 27.4894 27.4512C28.2916 27.4512 29.0188 27.6257 29.6709 27.9749C30.323 28.3212 30.841 28.8333 31.2247 29.5114C31.6085 30.1866 31.8004 31.0177 31.8004 32.0045ZM29.3246 32.0045C29.3246 31.4736 29.2539 31.0263 29.1125 30.6628C28.974 30.2963 28.7677 30.0193 28.4936 29.8317C28.2224 29.6413 27.8876 29.5461 27.4894 29.5461C27.0912 29.5461 26.7551 29.6413 26.4809 29.8317C26.2097 30.0193 26.0034 30.2963 25.862 30.6628C25.7235 31.0263 25.6542 31.4736 25.6542 32.0045C25.6542 32.5355 25.7235 32.9842 25.862 33.3506C26.0034 33.7142 26.2097 33.9912 26.4809 34.1816C26.7551 34.3692 27.0912 34.463 27.4894 34.463C27.8876 34.463 28.2224 34.3692 28.4936 34.1816C28.7677 33.9912 28.974 33.7142 29.1125 33.3506C29.2539 32.9842 29.3246 32.5355 29.3246 32.0045Z" fill="#06376B"></path>
    <path fill-rule="evenodd" clip-rule="evenodd" d="M31.3118 34.5511L31.3117 34.5513C30.9191 35.242 30.3877 35.768 29.7181 36.1265L29.7178 36.1267C29.05 36.4813 28.3065 36.6578 27.4895 36.6578C26.6666 36.6578 25.9201 36.4798 25.2521 36.1222L25.2517 36.122C24.5851 35.7605 24.0554 35.2332 23.6629 34.5426L23.6626 34.5422C23.2714 33.8457 23.0785 32.9982 23.0785 32.0044C23.0785 31.005 23.2714 30.156 23.6627 29.4622L23.6628 29.4621C24.0553 28.7685 24.5853 28.2423 25.2522 27.8866C25.9202 27.529 26.6666 27.3511 27.4895 27.3511C28.3066 27.3511 29.0501 27.529 29.718 27.8866C30.3877 28.2422 30.9191 28.7683 31.3117 29.4619C31.7061 30.1557 31.9004 31.0049 31.9004 32.0044C31.9004 33.004 31.706 33.8545 31.3118 34.5511ZM29.6709 27.9748C29.0188 27.6256 28.2916 27.4511 27.4895 27.4511C26.6815 27.4511 25.9515 27.6256 25.2993 27.9748C24.6501 28.3211 24.1336 28.8332 23.7498 29.5113C23.3689 30.1865 23.1785 31.0176 23.1785 32.0044C23.1785 32.9855 23.3689 33.8151 23.7498 34.4932C24.1336 35.1684 24.6501 35.682 25.2993 36.0341C25.9515 36.3832 26.6815 36.5578 27.4895 36.5578C28.2916 36.5578 29.0188 36.3846 29.6709 36.0384C30.323 35.6892 30.841 35.1771 31.2248 34.5018C31.6085 33.8237 31.8004 32.9913 31.8004 32.0044C31.8004 31.0176 31.6085 30.1865 31.2248 29.5113C30.841 28.8332 30.323 28.3211 29.6709 27.9748ZM29.019 30.698L29.019 30.698C28.8864 30.3472 28.6915 30.0882 28.4371 29.9142L28.4362 29.9135L28.4362 29.9135C28.1849 29.7371 27.8713 29.646 27.4895 29.646C27.1076 29.646 26.7924 29.737 26.538 29.9138L26.5378 29.9139C26.2861 30.088 26.091 30.3472 25.9554 30.6985C25.8225 31.0473 25.7543 31.4816 25.7543 32.0044C25.7543 32.5271 25.8225 32.9629 25.9554 33.3147C26.0908 33.6628 26.2859 33.9222 26.538 34.0994C26.7923 34.2732 27.1076 34.3629 27.4895 34.3629C27.8715 34.3629 28.1853 34.2731 28.4366 34.0994C28.6915 33.9223 28.8866 33.6629 29.0191 33.3149L29.0193 33.3145C29.155 32.9628 29.2246 32.5271 29.2246 32.0044C29.2246 31.4817 29.155 31.0476 29.0194 30.6989L29.019 30.698ZM28.4936 34.1815C28.2224 34.3691 27.8877 34.4629 27.4895 34.4629C27.0913 34.4629 26.7551 34.3691 26.481 34.1815C26.2097 33.9911 26.0034 33.7141 25.862 33.3505C25.7235 32.9841 25.6543 32.5354 25.6543 32.0044C25.6543 31.4735 25.7235 31.0262 25.862 30.6627C26.0034 30.2962 26.2097 30.0192 26.481 29.8316C26.7551 29.6412 27.0913 29.546 27.4895 29.546C27.8877 29.546 28.2224 29.6412 28.4936 29.8316C28.7677 30.0192 28.9741 30.2962 29.1126 30.6627C29.254 31.0262 29.3246 31.4735 29.3246 32.0044C29.3246 32.5354 29.254 32.9841 29.1126 33.3505C28.9741 33.7141 28.7677 33.9911 28.4936 34.1815Z" fill="#06376B"></path>
    <path d="M13.8528 36.4368V27.5725H17.6963C18.3715 27.5725 18.9385 27.6634 19.3973 27.8452C19.859 28.027 20.2067 28.2838 20.4404 28.6156C20.677 28.9475 20.7953 29.3384 20.7953 29.7886C20.7953 30.1147 20.7232 30.4119 20.5789 30.6802C20.4375 30.9486 20.2384 31.1736 19.9816 31.3554C19.7248 31.5343 19.4247 31.6584 19.0813 31.7277V31.8142C19.4622 31.8287 19.8085 31.9253 20.1201 32.1042C20.4318 32.2802 20.6799 32.5241 20.8646 32.8357C21.0493 33.1444 21.1416 33.508 21.1416 33.9264C21.1416 34.4112 21.0146 34.8426 20.7607 35.2206C20.5097 35.5986 20.1519 35.8958 19.6873 36.1122C19.2227 36.3286 18.6687 36.4368 18.0252 36.4368H13.8528ZM16.2593 34.5151H17.3847C17.7886 34.5151 18.0916 34.44 18.2936 34.29C18.4956 34.1371 18.5966 33.912 18.5966 33.6148C18.5966 33.407 18.549 33.231 18.4537 33.0867C18.3585 32.9425 18.2229 32.8328 18.0469 32.7578C17.8738 32.6828 17.6646 32.6453 17.4193 32.6453H16.2593V34.5151ZM16.2593 31.1563H17.2462C17.4568 31.1563 17.6429 31.1231 17.8045 31.0568C17.9661 30.9904 18.0916 30.8952 18.1811 30.7711C18.2734 30.6441 18.3196 30.4898 18.3196 30.308C18.3196 30.0339 18.2215 29.8247 18.0252 29.6804C17.829 29.5332 17.5809 29.4596 17.2808 29.4596H16.2593V31.1563Z" fill="#06376B"></path>
    <path d="M86.0216 49.731V40.8667H92.4101V42.8058H88.4281V44.3293H92.0812V46.2684H88.4281V47.7919H92.3928V49.731H86.0216Z" fill="#06376B"></path>
    <path fill-rule="evenodd" clip-rule="evenodd" d="M85.9216 49.8309V40.7666H92.5102V42.9057H88.5282V44.2292H92.1812V46.3683H88.5282V47.6918H92.4929V49.8309H85.9216ZM88.4282 47.7918V46.2683H92.0812V44.3292H88.4282V42.8057H92.4102V40.8666H86.0216V49.7309H92.3929V47.7918H88.4282Z" fill="#06376B"></path>
    <path d="M83.6623 40.8667V49.731H81.2557V40.8667H83.6623Z" fill="#06376B"></path>
    <path fill-rule="evenodd" clip-rule="evenodd" d="M83.7623 40.7666V49.8309H81.1558V40.7666H83.7623ZM83.6623 40.8666H81.2558V49.7309H83.6623V40.8666Z" fill="#06376B"></path>
    <path d="M71.4269 42.8058V40.8667H79.1312V42.8058H76.465V49.731H74.0931V42.8058H71.4269Z" fill="#06376B"></path>
    <path fill-rule="evenodd" clip-rule="evenodd" d="M71.3269 42.9057V40.7666H79.2312V42.9057H76.565V49.8309H73.9931V42.9057H71.3269ZM74.0931 42.8057V49.7309H76.465V42.8057H79.1312V40.8666H71.4269V42.8057H74.0931Z" fill="#06376B"></path>
    <path d="M64.1712 49.731H61.5742L64.5001 40.8667H67.7896L70.7155 49.731H68.1186L66.1795 43.3078H66.1103L64.1712 49.731ZM63.6864 46.2338H68.5687V48.0343H63.6864V46.2338Z" fill="#06376B"></path>
    <path fill-rule="evenodd" clip-rule="evenodd" d="M64.2455 49.8309H61.4359L64.4278 40.7666H67.8619L70.8539 49.8309H68.0443L67.5321 48.1342H64.7577L64.2455 49.8309ZM64.1712 49.7309H61.5742L64.5001 40.8666H67.7896L70.7156 49.7309H68.1186L67.6064 48.0342H64.6834L64.1712 49.7309ZM65.227 46.2337H67.0628L66.1795 43.3078H66.1103L65.227 46.2337ZM65.3616 46.1337H66.9282L66.1449 43.5391L65.3616 46.1337Z" fill="#06376B"></path>
    <path d="M54.825 40.8667L56.6428 47.1167H56.7121L58.53 40.8667H61.2481L58.3222 49.731H55.0327L52.1068 40.8667H54.825Z" fill="#06376B"></path>
    <path fill-rule="evenodd" clip-rule="evenodd" d="M54.9 40.7666L56.6775 46.8776L58.4549 40.7666H61.3865L58.3945 49.8309H54.9604L51.9685 40.7666H54.9ZM56.7121 47.1166H56.6429L54.825 40.8666H52.1068L55.0327 49.7309H58.3222L61.2481 40.8666H58.53L56.7121 47.1166Z" fill="#06376B"></path>
    <path d="M50.6283 45.2987C50.6283 46.2856 50.4364 47.118 50.0526 47.7961C49.6688 48.4713 49.1509 48.9835 48.4988 49.3327C47.8466 49.6789 47.1195 49.8521 46.3173 49.8521C45.5094 49.8521 44.7793 49.6775 44.1272 49.3283C43.478 48.9763 42.9615 48.4627 42.5777 47.7875C42.1968 47.1094 42.0063 46.2798 42.0063 45.2987C42.0063 44.3119 42.1968 43.4808 42.5777 42.8056C42.9615 42.1275 43.478 41.6153 44.1272 41.2691C44.7793 40.9199 45.5094 40.7454 46.3173 40.7454C47.1195 40.7454 47.8466 40.9199 48.4988 41.2691C49.1509 41.6153 49.6688 42.1275 50.0526 42.8056C50.4364 43.4808 50.6283 44.3119 50.6283 45.2987ZM48.1525 45.2987C48.1525 44.7678 48.0818 44.3205 47.9404 43.9569C47.8019 43.5905 47.5956 43.3135 47.3215 43.1259C47.0502 42.9355 46.7155 42.8402 46.3173 42.8402C45.9191 42.8402 45.5829 42.9355 45.3088 43.1259C45.0376 43.3135 44.8313 43.5905 44.6899 43.9569C44.5514 44.3205 44.4821 44.7678 44.4821 45.2987C44.4821 45.8296 44.5514 46.2783 44.6899 46.6448C44.8313 47.0084 45.0376 47.2854 45.3088 47.4758C45.5829 47.6634 45.9191 47.7572 46.3173 47.7572C46.7155 47.7572 47.0502 47.6634 47.3215 47.4758C47.5956 47.2854 47.8019 47.0084 47.9404 46.6448C48.0818 46.2783 48.1525 45.8296 48.1525 45.2987Z" fill="#06376B"></path>
    <path fill-rule="evenodd" clip-rule="evenodd" d="M50.1395 47.8453L50.1395 47.8454C49.7468 48.5362 49.2155 49.0622 48.5459 49.4207L48.5456 49.4209C47.8778 49.7755 47.1343 49.952 46.3172 49.952C45.4944 49.952 44.7479 49.774 44.0799 49.4164L44.0794 49.4162C43.4129 49.0547 42.8832 48.5274 42.4906 47.8368L42.4904 47.8363C42.0992 47.1399 41.9062 46.2924 41.9062 45.2986C41.9062 44.2992 42.0991 43.4502 42.4905 42.7564L42.4906 42.7563C42.8831 42.0627 43.413 41.5365 44.08 41.1808C44.7479 40.8232 45.4944 40.6453 46.3172 40.6453C47.1344 40.6453 47.8779 40.8232 48.5457 41.1807C49.2155 41.5364 49.7469 42.0625 50.1395 42.7561C50.5338 43.4499 50.7282 44.299 50.7282 45.2986C50.7282 46.2982 50.5338 47.1487 50.1395 47.8453ZM48.4987 41.269C47.8465 40.9198 47.1194 40.7453 46.3172 40.7453C45.5093 40.7453 44.7792 40.9198 44.1271 41.269C43.4779 41.6152 42.9614 42.1274 42.5776 42.8055C42.1967 43.4807 42.0063 44.3118 42.0063 45.2986C42.0063 46.2797 42.1967 47.1093 42.5776 47.7874C42.9614 48.4626 43.4779 48.9762 44.1271 49.3282C44.7792 49.6774 45.5093 49.852 46.3172 49.852C47.1194 49.852 47.8465 49.6788 48.4987 49.3326C49.1508 48.9834 49.6687 48.4712 50.0525 47.796C50.4363 47.1179 50.6282 46.2855 50.6282 45.2986C50.6282 44.3118 50.4363 43.4807 50.0525 42.8055C49.6687 42.1274 49.1508 41.6152 48.4987 41.269ZM47.8468 43.9922L47.8468 43.9922C47.7142 43.6414 47.5193 43.3824 47.2649 43.2083L47.2639 43.2077L47.2639 43.2077C47.0127 43.0312 46.6991 42.9402 46.3172 42.9402C45.9354 42.9402 45.6201 43.0312 45.3658 43.2079L45.3656 43.2081C45.1139 43.3821 44.9187 43.6414 44.7832 43.9926C44.6503 44.3415 44.582 44.7758 44.582 45.2986C44.582 45.8213 44.6503 46.2571 44.7832 46.6089C44.9186 46.957 45.1137 47.2164 45.3657 47.3936C45.62 47.5674 45.9353 47.6571 46.3172 47.6571C46.6993 47.6571 47.013 47.5673 47.2643 47.3936C47.5193 47.2165 47.7143 46.9571 47.8469 46.6091L47.847 46.6087C47.9827 46.257 48.0524 45.8213 48.0524 45.2986C48.0524 44.7759 47.9827 44.3418 47.8471 43.9931L47.8468 43.9922ZM47.3214 47.4757C47.0501 47.6633 46.7154 47.7571 46.3172 47.7571C45.919 47.7571 45.5828 47.6633 45.3087 47.4757C45.0375 47.2853 44.8312 47.0083 44.6898 46.6447C44.5513 46.2782 44.482 45.8295 44.482 45.2986C44.482 44.7677 44.5513 44.3204 44.6898 43.9568C44.8312 43.5904 45.0375 43.3134 45.3087 43.1258C45.5828 42.9354 45.919 42.8402 46.3172 42.8402C46.7154 42.8402 47.0501 42.9354 47.3214 43.1258C47.5955 43.3134 47.8018 43.5904 47.9403 43.9568C48.0817 44.3204 48.1524 44.7677 48.1524 45.2986C48.1524 45.8295 48.0817 46.2782 47.9403 46.6447C47.8018 47.0083 47.5955 47.2853 47.3214 47.4757Z" fill="#06376B"></path>
    <path d="M39.6837 40.8667V49.731H37.6754L34.4725 45.0738H34.4206V49.731H32.014V40.8667H34.057L37.208 45.5066H37.2772V40.8667H39.6837Z" fill="#06376B"></path>
    <path fill-rule="evenodd" clip-rule="evenodd" d="M39.7838 40.7666V49.8309H37.6229L34.5206 45.32V49.8309H31.9141V40.7666H34.11L37.1772 45.2832V40.7666H39.7838ZM37.208 45.5065L34.057 40.8666H32.0141V49.7309H34.4206V45.0737H34.4725L37.6755 49.7309H39.6838V40.8666H37.2772V45.5065H37.208Z" fill="#06376B"></path>
    <path d="M23.2131 49.731V40.8667H29.6017V42.8058H25.6197V44.3293H29.2727V46.2684H25.6197V47.7919H29.5844V49.731H23.2131Z" fill="#06376B"></path>
    <path fill-rule="evenodd" clip-rule="evenodd" d="M23.113 49.8309V40.7666H29.7016V42.9057H25.7196V44.2292H29.3726V46.3683H25.7196V47.6918H29.6843V49.8309H23.113ZM25.6196 47.7918V46.2683H29.2726V44.3292H25.6196V42.8057H29.6016V40.8666H23.213V49.7309H29.5843V47.7918H25.6196Z" fill="#06376B"></path>
    <path d="M13.8528 49.731V40.8667H17.679C18.3369 40.8667 18.9125 40.9864 19.406 41.2259C19.8994 41.4654 20.2832 41.8103 20.5573 42.2604C20.8314 42.7105 20.9685 43.2501 20.9685 43.8792C20.9685 44.514 20.8271 45.0493 20.5443 45.485C20.2644 45.9207 19.8705 46.2496 19.3627 46.4718C18.8577 46.694 18.2676 46.8051 17.5924 46.8051H15.3071V44.9353H17.1076C17.3904 44.9353 17.6314 44.9007 17.8305 44.8314C18.0325 44.7593 18.1868 44.6453 18.2936 44.4895C18.4032 44.3337 18.4581 44.1302 18.4581 43.8792C18.4581 43.6253 18.4032 43.4189 18.2936 43.2602C18.1868 43.0986 18.0325 42.9803 17.8305 42.9053C17.6314 42.8274 17.3904 42.7885 17.1076 42.7885H16.2593V49.731H13.8528ZM19.0467 45.6624L21.2628 49.731H18.6485L16.4844 45.6624H19.0467Z" fill="#06376B"></path>
    <path fill-rule="evenodd" clip-rule="evenodd" d="M13.7528 49.8309V40.7666H17.679C18.3491 40.7666 18.9402 40.8886 19.4497 41.1359C19.9596 41.3834 20.3582 41.7411 20.6427 42.2083C20.9281 42.6769 21.0685 43.2353 21.0685 43.8791C21.0685 44.5288 20.9237 45.0839 20.6284 45.5391C20.3746 45.934 20.031 46.244 19.6 46.469L21.4312 49.8309H18.5885L17.0321 46.905H16.3593V49.8309H13.7528ZM16.2593 46.805H17.0922L18.6485 49.7309H21.2628L19.4626 46.4259C19.4929 46.4114 19.5227 46.3965 19.5521 46.3811C19.9695 46.1636 20.3003 45.8648 20.5443 45.4849C20.8271 45.0492 20.9685 44.5139 20.9685 43.8791C20.9685 43.25 20.8314 42.7104 20.5573 42.2603C20.2832 41.8102 19.8994 41.4653 19.406 41.2258C18.9126 40.9864 18.3369 40.8666 17.679 40.8666H13.8528V49.7309H16.2593V46.805ZM17.1077 44.9352C17.3905 44.9352 17.6314 44.9006 17.8305 44.8313C18.0325 44.7592 18.1869 44.6452 18.2936 44.4894C18.4033 44.3336 18.4581 44.1301 18.4581 43.8791C18.4581 43.6252 18.4033 43.4188 18.2936 43.2601C18.1869 43.0986 18.0325 42.9802 17.8305 42.9052C17.6314 42.8273 17.3905 42.7884 17.1077 42.7884H16.2593V44.9352H17.1077ZM16.3593 44.8352H17.1077C17.3827 44.8352 17.6117 44.8015 17.7973 44.737C17.982 44.6709 18.1179 44.5689 18.2111 44.4328L18.2118 44.4318C18.3064 44.2975 18.3581 44.116 18.3581 43.8791C18.3581 43.6391 18.3063 43.4544 18.2113 43.317L18.2102 43.3153C18.1164 43.1734 17.9801 43.0675 17.7957 42.999L17.7941 42.9984C17.6096 42.9262 17.3818 42.8884 17.1077 42.8884H16.3593V44.8352Z" fill="#06376B"></path>
</svg> 